<svg width="136" height="48" viewBox="0 0 136 48" fill="none" xmlns="http://www.w3.org/2000/svg">
<g id="laravel" clip-path="url(#clip0_1_281)">
<g id="Group">
<path id="Vector" fill-rule="evenodd" clip-rule="evenodd" d="M38.455 13.0182C38.459 13.0282 38.465 13.0382 38.467 13.0482C38.4812 13.1017 38.4886 13.1568 38.489 13.2122V21.7982C38.4893 21.908 38.4607 22.016 38.4061 22.1112C38.3515 22.2065 38.2729 22.2858 38.178 22.3412L31.04 26.4912V34.7142C31.0402 34.8241 31.0114 34.9321 30.9566 35.0274C30.9019 35.1227 30.823 35.202 30.728 35.2572L15.829 43.9172C15.7947 43.9357 15.7585 43.9505 15.721 43.9612C15.707 43.9672 15.694 43.9752 15.679 43.9792C15.5749 44.0072 15.4651 44.0072 15.361 43.9792C15.3514 43.9767 15.342 43.9734 15.333 43.9692L15.313 43.9592C15.278 43.9462 15.243 43.9352 15.21 43.9162L0.311001 35.2572C0.216218 35.2018 0.137622 35.1224 0.0830524 35.0272C0.0284829 34.9319 -0.000153033 34.824 6.15061e-07 34.7142V8.95618C0.000384893 8.90119 0.00743638 8.84646 0.0210006 8.79318C0.0270006 8.77418 0.0370006 8.75818 0.0430006 8.74018L0.0630006 8.68718C0.0685761 8.67204 0.075261 8.65733 0.0830006 8.64318C0.0950006 8.62318 0.112001 8.60618 0.126001 8.58718C0.144001 8.56218 0.159001 8.53718 0.181001 8.51418C0.199001 8.49618 0.221001 8.48418 0.241001 8.46718C0.264001 8.44918 0.285001 8.42918 0.310001 8.41418L7.76 4.08418C7.85412 4.02937 7.96109 4.00049 8.07 4.00049C8.17892 4.00049 8.28588 4.02937 8.38 4.08418L15.83 8.41418C15.855 8.42918 15.876 8.44918 15.899 8.46718L15.92 8.48318C15.934 8.49318 15.948 8.50318 15.96 8.51418C15.9749 8.52988 15.9883 8.54696 16 8.56518L16.015 8.58718C16.028 8.60718 16.045 8.62218 16.057 8.64318C16.074 8.67318 16.085 8.70718 16.097 8.74018L16.107 8.76218L16.119 8.79218C16.133 8.84571 16.1401 8.90084 16.14 8.95618V25.0442L22.348 21.4362V13.2122C22.3483 13.1571 22.3557 13.1023 22.37 13.0492C22.375 13.0302 22.385 13.0142 22.391 12.9962L22.398 12.9762C22.4104 12.9256 22.4368 12.8796 22.474 12.8432C22.492 12.8182 22.508 12.7932 22.529 12.7702C22.539 12.7602 22.549 12.7532 22.559 12.7452C22.569 12.7382 22.58 12.7312 22.589 12.7232L22.625 12.6932C22.6354 12.6847 22.6464 12.677 22.658 12.6702L30.108 8.34018C30.2021 8.28537 30.3091 8.25649 30.418 8.25649C30.5269 8.25649 30.6339 8.28537 30.728 8.34018L38.178 12.6702C38.204 12.6852 38.224 12.7062 38.247 12.7232L38.269 12.7392C38.282 12.7492 38.296 12.7592 38.307 12.7702C38.322 12.7861 38.3354 12.8035 38.347 12.8222L38.363 12.8432L38.379 12.8632C38.389 12.8752 38.398 12.8862 38.405 12.8992C38.4185 12.9249 38.4299 12.9516 38.439 12.9792L38.445 12.9962L38.455 13.0182ZM9.322 30.4532L15.518 33.9932L29.17 26.1262L22.969 22.5212L9.322 30.4532ZM29.798 25.0442V17.9042L23.59 14.2972V21.4372L29.797 25.0442H29.798ZM36.624 13.2142L30.418 9.60618L24.213 13.2132L30.418 16.8192L36.624 13.2132V13.2142ZM8.691 13.6482V29.3742L14.899 25.7652V10.0402L8.69 13.6482H8.691ZM14.275 8.95618L8.07 5.35018L1.864 8.95618L8.07 12.5632L14.275 8.95618ZM7.449 13.6502L1.241 10.0402V34.3502L14.9 42.2902V35.0802L7.765 31.0042H7.763L7.759 31.0002C7.734 30.9852 7.714 30.9652 7.692 30.9472C7.6704 30.9349 7.65056 30.9198 7.633 30.9022L7.631 30.9002C7.618 30.8872 7.607 30.8712 7.596 30.8562C7.59084 30.8487 7.58551 30.8414 7.58 30.8342L7.55 30.7962C7.54414 30.7889 7.53879 30.7812 7.534 30.7732L7.533 30.7712C7.52331 30.7541 7.5156 30.736 7.51 30.7172L7.5 30.6932L7.485 30.6602C7.47926 30.6479 7.47457 30.6352 7.471 30.6222C7.46559 30.5999 7.46224 30.5771 7.461 30.5542L7.458 30.5292C7.4569 30.5205 7.45557 30.5118 7.454 30.5032C7.452 30.4892 7.449 30.4742 7.449 30.4592V13.6502V13.6512V13.6502ZM16.14 35.0802V42.2902L29.797 34.3532V27.2102L16.14 35.0802V35.0812V35.0802ZM31.04 25.0432L37.248 21.4352V14.2952L31.04 17.9052V25.0452V25.0432Z" fill="#374151"/>
<path id="Vector_2" d="M132.739 13.2144H136V34.3604H132.739V13.2144ZM48.3929 13.2144H51.8339V31.2504H58.2969V34.3604H48.3929V13.2164V13.2144Z" fill="#374151"/>
<path id="Vector_3" fill-rule="evenodd" clip-rule="evenodd" d="M68.576 20.5254C69.384 20.9284 70.006 21.4814 70.446 22.1854V20.2834H73.707V34.3604H70.446V32.4574C70.007 33.1624 69.384 33.7164 68.576 34.1174C67.768 34.5214 66.9561 34.7224 66.1361 34.7224C65.0791 34.7224 64.1121 34.5264 63.234 34.1324C62.3775 33.7556 61.608 33.2057 60.974 32.5174C60.3439 31.8297 59.8471 31.0308 59.509 30.1614C59.1561 29.2565 58.9783 28.2927 58.985 27.3214C58.985 26.3354 59.159 25.3934 59.509 24.4974C59.8452 23.6224 60.3424 22.8181 60.975 22.1264C61.6091 21.4379 62.3785 20.8878 63.235 20.5104C64.112 20.1174 65.079 19.9204 66.137 19.9204C66.955 19.9204 67.767 20.1224 68.576 20.5254ZM69.309 30.4634C69.676 30.0474 69.9601 29.5654 70.1471 29.0434C70.3471 28.4914 70.449 27.9094 70.447 27.3224C70.447 26.7174 70.3471 26.1424 70.1471 25.6004C69.9603 25.0782 69.6759 24.5963 69.309 24.1804C68.9446 23.7737 68.5017 23.4448 68.0071 23.2134C67.478 22.9676 66.9004 22.8439 66.317 22.8514C65.6971 22.8514 65.139 22.9714 64.64 23.2134C64.1518 23.4478 63.7147 23.7764 63.354 24.1804C62.994 24.5834 62.72 25.0564 62.531 25.6004C62.3397 26.1542 62.2437 26.7365 62.2471 27.3224C62.2471 27.9264 62.341 28.5004 62.531 29.0424C62.7086 29.5656 62.9884 30.0483 63.354 30.4624C63.714 30.8664 64.142 31.1884 64.64 31.4304C65.164 31.6774 65.7371 31.8004 66.3161 31.7924C66.9341 31.7924 67.4981 31.6724 68.0071 31.4304C68.5021 31.1994 68.945 30.8704 69.309 30.4634ZM96.958 22.1864C96.5181 21.4814 95.895 20.9284 95.088 20.5254C94.28 20.1224 93.4681 19.9214 92.6481 19.9214C91.5911 19.9214 90.6241 20.1174 89.746 20.5104C88.8895 20.8878 88.1201 21.4379 87.486 22.1264C86.8538 22.8179 86.3569 23.6218 86.0211 24.4964C85.6711 25.3974 85.493 26.3564 85.497 27.3224C85.497 28.3294 85.6711 29.2754 86.0211 30.1624C86.3591 31.0314 86.857 31.8304 87.487 32.5174C88.1209 33.2061 88.8904 33.7563 89.747 34.1334C90.6241 34.5264 91.5911 34.7234 92.6491 34.7234C93.4671 34.7234 94.279 34.5214 95.088 34.1184C95.896 33.7164 96.5181 33.1624 96.958 32.4584V34.3604H100.219V20.2834H96.958V22.1864ZM96.658 29.0434C96.4714 29.5656 96.187 30.0476 95.82 30.4634C95.4561 30.8703 95.0135 31.1992 94.519 31.4304C93.99 31.6763 93.4124 31.8 92.8291 31.7924C92.2101 31.7924 91.6511 31.6724 91.1521 31.4304C90.6589 31.1936 90.2181 30.8604 89.8559 30.4504C89.4937 30.0404 89.2173 29.562 89.043 29.0434C88.8515 28.49 88.7551 27.9081 88.7581 27.3224C88.7581 26.7174 88.853 26.1424 89.043 25.6004C89.2201 25.077 89.4999 24.5942 89.866 24.1804C90.226 23.7764 90.664 23.4474 91.1521 23.2134C91.6758 22.9664 92.2491 22.8426 92.8281 22.8514C93.4461 22.8514 94.01 22.9714 94.518 23.2134C95.028 23.4554 95.461 23.7784 95.82 24.1804C96.18 24.5834 96.459 25.0564 96.659 25.6004C96.857 26.1434 96.958 26.7174 96.958 27.3224C96.958 27.9264 96.858 28.5004 96.658 29.0424V29.0434Z" fill="#374151"/>
<path id="Vector_4" d="M76.281 34.3602H79.543V23.5232H85.139V20.2832H76.28V34.3602H76.281ZM109.197 31.0632L113.296 20.2832H116.6L111.246 34.3602H107.147L101.794 20.2832H105.097L109.197 31.0632Z" fill="#374151"/>
<path id="Vector_5" fill-rule="evenodd" clip-rule="evenodd" d="M123.714 19.9204C119.72 19.9204 116.558 23.2354 116.558 27.3204C116.558 31.8404 119.618 34.7224 124.132 34.7224C126.658 34.7224 128.271 33.7474 130.241 31.6244L128.038 29.9034C128.036 29.9034 126.374 32.1074 123.893 32.1074C121.009 32.1074 119.794 29.7594 119.794 28.5454H130.615C131.183 23.8954 128.155 19.9214 123.714 19.9214V19.9204ZM119.803 26.0984C119.828 25.8284 120.204 22.5364 123.688 22.5364C127.172 22.5364 127.595 25.8264 127.619 26.0984H119.803Z" fill="#374151"/>
</g>
</g>
<defs>
<clipPath id="clip0_1_281">
<rect width="136" height="48" fill="white"/>
</clipPath>
</defs>
</svg>
