<svg width="109" height="40" viewBox="0 0 109 40" fill="none" xmlns="http://www.w3.org/2000/svg">
<g id="Logo">
<path id="Vector" fill-rule="evenodd" clip-rule="evenodd" d="M0 20C0 31.046 8.954 40 20 40C31.046 40 40 31.046 40 20C40 8.954 31.046 0 20 0C8.954 0 0 8.954 0 20ZM20 36C12.736 36 6.679 30.837 5.296 23.98C4.97 22.358 6.343 21 8 21H32C33.657 21 35.031 22.357 34.704 23.98C33.32 30.838 27.264 36 20 36Z" fill="#2563EB"/>
<path id="Vector_2" d="M55.528 26.57V15.842H52V13.97H61.108V15.842H57.472V26.57H55.528Z" fill="#0F172A"/>
<path id="Vector_3" d="M83.084 26.57V13.97H88.43C89.174 13.97 89.846 14.15 90.446 14.51C91.0489 14.8489 91.547 15.3471 91.886 15.95C92.246 16.562 92.426 17.252 92.426 18.02C92.426 18.8 92.246 19.502 91.886 20.126C91.5458 20.742 91.049 21.2573 90.446 21.62C89.846 21.98 89.174 22.16 88.43 22.16H85.784V26.57H83.084ZM85.748 19.73H88.124C88.412 19.73 88.67 19.658 88.898 19.514C89.126 19.358 89.306 19.154 89.438 18.902C89.585 18.6381 89.6596 18.34 89.654 18.038C89.654 17.714 89.582 17.432 89.438 17.192C89.3173 16.952 89.1297 16.7519 88.898 16.616C88.6662 16.4709 88.3974 16.3959 88.124 16.4H85.748V19.73ZM106.227 26.57V13.25H108.783V26.57H106.227Z" fill="#2563EB"/>
<path id="Vector_4" fill-rule="evenodd" clip-rule="evenodd" d="M95.9059 26.102C96.5419 26.534 97.2559 26.75 98.0479 26.75C98.4919 26.75 98.9119 26.684 99.3079 26.552C99.6865 26.4172 100.044 26.2293 100.37 25.994C100.632 25.8024 100.868 25.5779 101.072 25.326V26.57H103.646V17.048H101.108V18.296C100.922 18.0446 100.704 17.8186 100.46 17.624C100.156 17.3753 99.8079 17.186 99.4339 17.066C99.0244 16.9176 98.5915 16.8444 98.1559 16.85C97.3279 16.85 96.5899 17.066 95.9419 17.498C95.2939 17.918 94.7779 18.5 94.3939 19.244C94.0219 19.976 93.8359 20.822 93.8359 21.782C93.8359 22.742 94.0219 23.594 94.3939 24.338C94.7659 25.082 95.2699 25.67 95.9059 26.102ZM100.01 24.194C99.6499 24.422 99.2299 24.536 98.7499 24.536C98.2819 24.536 97.8679 24.422 97.5079 24.194C97.1513 23.9562 96.8653 23.6266 96.6799 23.24C96.4759 22.82 96.3739 22.334 96.3739 21.782C96.3739 21.242 96.4759 20.768 96.6799 20.36C96.8839 19.952 97.1599 19.634 97.5079 19.406C97.8679 19.166 98.2819 19.046 98.7499 19.046C99.2299 19.046 99.6499 19.166 100.01 19.406C100.37 19.634 100.646 19.952 100.838 20.36C101.042 20.768 101.144 21.242 101.144 21.782C101.144 22.334 101.042 22.82 100.838 23.24C100.66 23.6316 100.373 23.963 100.01 24.194Z" fill="#2563EB"/>
<path id="Vector_5" fill-rule="evenodd" clip-rule="evenodd" d="M76.322 23.197L78.917 26.57H81.185L77.523 21.783L80.861 17.12H78.665L76.503 20.454L73.949 17.12H71.609L75.261 21.83L71.627 26.57H73.823L76.323 23.197H76.322ZM62.738 26.102C63.3702 26.5293 64.1169 26.7552 64.88 26.75C65.336 26.75 65.768 26.678 66.176 26.534C66.596 26.39 66.974 26.198 67.31 25.958C67.645 25.7329 67.9375 25.4502 68.174 25.123V26.57H70.046V17.12H68.174V18.57C67.984 18.2565 67.7403 17.9789 67.454 17.75C67.1427 17.4795 66.7821 17.2717 66.392 17.138C65.9575 16.9897 65.501 16.9167 65.042 16.922C64.214 16.922 63.464 17.132 62.792 17.552C62.132 17.972 61.604 18.554 61.208 19.298C60.824 20.03 60.632 20.87 60.632 21.818C60.632 22.754 60.824 23.594 61.208 24.338C61.592 25.082 62.102 25.67 62.738 26.102ZM66.86 24.626C66.428 24.902 65.93 25.04 65.366 25.04C64.8442 25.0486 64.3312 24.9047 63.89 24.626C63.462 24.3411 63.1148 23.9505 62.882 23.492C62.642 23 62.522 22.442 62.522 21.818C62.522 21.206 62.642 20.66 62.882 20.18C63.134 19.7 63.47 19.322 63.89 19.046C64.3312 18.7674 64.8442 18.6235 65.366 18.632C65.93 18.632 66.428 18.77 66.86 19.046C67.292 19.322 67.628 19.7 67.868 20.18C68.12 20.66 68.246 21.206 68.246 21.818C68.246 22.442 68.12 23 67.868 23.492C67.628 23.972 67.292 24.35 66.86 24.626Z" fill="#0F172A"/>
</g>
</svg>
