<svg width="138" height="48" viewBox="0 0 138 48" fill="none" xmlns="http://www.w3.org/2000/svg">
<g id="mirage">
<g id="Group">
<path id="Vector" fill-rule="evenodd" clip-rule="evenodd" d="M30.316 5C34.3 5 37.529 8.256 37.529 12.273C37.5324 13.7657 37.0764 15.2232 36.2228 16.4478C35.3693 17.6724 34.1596 18.6046 32.758 19.118L38.572 29.58H42.552C43.165 29.58 43.662 30.08 43.662 30.698C43.662 31.316 43.165 31.816 42.552 31.816H1.10998C0.497977 31.816 0.000976562 31.316 0.000976562 30.698C0.000976562 30.08 0.497976 29.58 1.11098 29.58H5.09098L15.444 11.018C15.5367 10.851 15.6712 10.7109 15.8342 10.6112C15.9972 10.5116 16.1832 10.4559 16.3741 10.4496C16.5651 10.4433 16.7544 10.4865 16.9236 10.575C17.0929 10.6636 17.2363 10.7945 17.34 10.955L23.288 20.144L25.138 17.335C23.8291 15.9752 23.0995 14.1603 23.103 12.273C23.103 8.256 26.333 5 30.317 5H30.316ZM24.607 22.183L29.395 29.58H36.029L28.572 16.162L24.607 22.183ZM26.747 29.58L16.48 13.72L7.63498 29.58H26.747ZM35.449 12.273C35.4519 13.3951 35.0899 14.4878 34.4174 15.3861C33.7449 16.2845 32.7985 16.9397 31.721 17.253L29.62 13.472C29.5278 13.3054 29.3941 13.1654 29.232 13.0656C29.0698 12.9657 28.8846 12.9095 28.6943 12.9022C28.504 12.895 28.3151 12.937 28.1458 13.0242C27.9765 13.1114 27.8326 13.2409 27.728 13.4L26.326 15.53C25.5835 14.6071 25.1797 13.4575 25.182 12.273C25.182 9.414 27.481 7.097 30.316 7.097C33.151 7.097 35.449 9.414 35.449 12.273Z" fill="#374151"/>
<path id="Vector_2" d="M9.61994 35.1729C9.00894 35.1729 8.51294 35.6729 8.51294 36.2899C8.51294 36.9069 9.00894 37.4058 9.61994 37.4058H34.0399C34.6519 37.4058 35.1479 36.9059 35.1479 36.2899C35.1479 35.6729 34.6519 35.1729 34.0409 35.1729H9.61994ZM18.1329 40.7629C17.5199 40.7629 17.0229 41.2629 17.0229 41.8819C17.0229 42.4989 17.5199 42.9999 18.1329 42.9999H25.5289C26.1409 42.9999 26.6379 42.4999 26.6379 41.8819C26.6379 41.2639 26.1409 40.7619 25.5279 40.7619H18.1329V40.7629Z" fill="#374151"/>
<path id="Vector_3" fill-rule="evenodd" clip-rule="evenodd" d="M120.027 21.8712C119.045 20.6212 117.574 19.9482 115.68 19.9482C112.696 19.9482 109.631 22.4762 109.631 26.7342C109.631 30.9922 112.696 33.5202 115.68 33.5202C117.574 33.5202 119.045 32.8602 120.027 31.5972V32.6552C120.027 35.1002 118.555 36.5852 115.885 36.5852C114.291 36.5852 112.778 36.0612 111.457 35.2512L110.421 37.6832C111.797 38.6732 113.936 39.2082 115.885 39.2082C120.245 39.2082 122.888 36.6682 122.888 32.5312V20.2912H120.027V21.8712ZM112.56 26.7342C112.56 24.5092 114.004 22.6542 116.415 22.6542C118.718 22.6542 120.272 24.4272 120.272 26.7342C120.272 29.0422 118.718 30.8142 116.415 30.8142C114.004 30.8142 112.56 28.9472 112.56 26.7342ZM104.341 21.8852C103.442 20.7172 102.093 19.9482 100.24 19.9482C96.59 19.9482 93.714 22.8462 93.714 26.8712C93.714 30.8962 96.589 33.7952 100.24 33.7952C102.094 33.7952 103.442 33.0402 104.341 31.8722V33.4522H107.189V20.2922H104.341V21.8852ZM96.643 26.8712C96.643 24.5642 98.129 22.6542 100.581 22.6542C102.938 22.6542 104.519 24.4672 104.519 26.8712C104.519 29.2752 102.938 31.0892 100.581 31.0892C98.129 31.0892 96.643 29.1792 96.643 26.8712ZM138 26.8582C137.987 22.7512 135.48 19.9482 131.828 19.9482C127.986 19.9482 125.329 22.7512 125.329 26.8722C125.329 31.0482 128.095 33.7962 132.005 33.7962C133.981 33.7962 135.779 33.3162 137.373 31.9422L135.956 29.8942C134.88 30.7592 133.49 31.2822 132.182 31.2822C130.329 31.2822 128.681 30.2922 128.299 27.9292H137.946C137.973 27.6002 138 27.2292 138 26.8592V26.8582ZM128.313 25.7452C128.613 23.8222 129.743 22.5032 131.773 22.5032C133.586 22.5032 134.771 23.6982 135.084 25.7452H128.313Z" fill="#374151"/>
<path id="Vector_4" d="M64.3329 27.9569L58.7869 14.2189H54.0599V33.4519H57.1399V17.7769L62.7099 31.5699H65.9529L71.5259 17.6259V33.4519H74.6059V14.2189H69.8769L64.3319 27.9569H64.3329ZM81.2039 33.4519V20.2919H78.3439V33.4519H81.2039ZM93.3859 20.3189C92.7319 20.0579 92.0639 19.9489 91.1919 19.9489C89.5979 19.9489 88.2619 20.5249 87.4039 21.7749V20.2899H84.5839V33.4499H87.4319V26.2099C87.4319 23.9719 88.7259 22.6799 90.5379 22.6799C91.2329 22.6799 92.1049 22.8449 92.7039 23.1599L93.3859 20.3179V20.3189ZM81.7759 15.7439C81.7759 14.6039 80.8899 13.7109 79.7589 13.7109C78.6289 13.7109 77.7689 14.6039 77.7689 15.7439C77.7689 16.8839 78.6289 17.7499 79.7589 17.7499C80.8899 17.7499 81.7759 16.8839 81.7759 15.7439Z" fill="#374151"/>
</g>
</g>
</svg>
