<svg width="147" height="48" viewBox="0 0 147 48" fill="none" xmlns="http://www.w3.org/2000/svg">
<g id="statamic" clip-path="url(#clip0_1_288)">
<g id="Group">
<path id="Vector" fill-rule="evenodd" clip-rule="evenodd" d="M29.277 33.6769C29.277 36.1199 28.427 37.1189 26.112 37.1189H5.57001C3.25401 37.1189 2.40501 36.1189 2.40501 33.6769V28.9199C2.40501 26.6259 1.30001 25.3299 0.238006 24.7359C0.164944 24.6916 0.104535 24.6293 0.062609 24.5548C0.0206832 24.4804 -0.00134277 24.3964 -0.00134277 24.3109C-0.00134277 24.2255 0.0206832 24.1415 0.062609 24.0671C0.104535 23.9926 0.164944 23.9302 0.238006 23.8859C1.34301 23.1849 2.40501 21.7189 2.40501 19.7649V15.0899C2.40501 12.4559 3.12701 11.6899 5.44201 11.6899H26.24C28.556 11.6899 29.278 12.4559 29.278 15.0899V19.7629C29.278 21.7169 30.34 23.1829 31.444 23.8829C31.764 24.0959 31.764 24.5429 31.444 24.7329C30.382 25.3489 29.278 26.6449 29.278 28.9179V33.6759H29.277V33.6769ZM9.81901 30.5549C11.497 32.0199 13.303 32.7639 15.789 32.7639C19.697 32.7639 22.246 30.8099 22.246 27.6439C22.246 24.2919 19.21 23.4369 16.741 22.7419C15.048 22.2649 13.621 21.8619 13.621 20.7819C13.621 20.0819 14.365 19.4019 15.618 19.4019C16.828 19.4019 17.828 19.6579 18.783 20.1459C19.102 20.2949 19.399 20.4009 19.675 20.4009C20.079 20.4009 20.398 20.2099 20.674 19.8279L21.056 19.2539C21.205 19.0419 21.269 18.8079 21.269 18.5539C21.269 18.1279 21.056 17.7039 20.738 17.4909C19.463 16.6839 17.742 16.0039 15.406 16.0039C12.092 16.0039 9.54301 17.7459 9.54301 20.8679C9.54301 24.3579 12.645 25.2449 15.129 25.9529C16.786 26.4259 18.167 26.8199 18.167 27.8569C18.167 28.8549 17.233 29.3439 16.064 29.3439C14.6603 29.3573 13.2847 28.9505 12.114 28.1759C11.752 27.9419 11.412 27.7929 11.051 27.7929C10.731 27.7929 10.456 27.9419 10.201 28.2609L9.69101 28.9189C9.50101 29.1319 9.43701 29.4079 9.43701 29.6629C9.43701 29.9809 9.54301 30.2999 9.81901 30.5549ZM41.555 28.5999C41.279 28.5999 41.045 28.7069 40.833 28.9829L40.408 29.5779C40.238 29.7679 40.195 30.0019 40.195 30.2149C40.195 30.4909 40.301 30.7669 40.535 30.9799C41.937 32.1899 43.467 32.8279 45.57 32.8279C48.862 32.8279 51.029 31.1709 51.029 28.5149C51.029 25.6909 48.461 24.9699 46.375 24.3839C44.945 23.9819 43.743 23.6439 43.743 22.7379C43.743 22.1219 44.38 21.5679 45.421 21.5679C46.3444 21.565 47.255 21.7842 48.076 22.2069L48.14 22.2309C48.392 22.3289 48.625 22.4189 48.84 22.4189C49.16 22.4189 49.436 22.2689 49.67 21.9289L50.01 21.4419C50.1248 21.2572 50.1838 21.0434 50.18 20.8259C50.18 20.4649 50.01 20.1039 49.733 19.9339C48.65 19.2109 47.205 18.6589 45.23 18.6589C42.447 18.6589 40.28 20.1459 40.28 22.7789C40.28 25.7069 42.895 26.4539 44.992 27.0519C46.395 27.4519 47.566 27.7869 47.566 28.6639C47.566 29.5339 46.78 29.9389 45.782 29.9389C44.486 29.9389 43.402 29.5779 42.447 28.9389C42.171 28.7279 41.831 28.5989 41.555 28.5989V28.5999ZM61.841 30.8949C61.8441 30.7136 61.7918 30.5357 61.691 30.3849L61.416 29.9389C61.161 29.4929 60.864 29.3229 60.481 29.3229C60.291 29.3229 60.078 29.3649 59.801 29.4709C59.526 29.5779 59.207 29.6199 58.846 29.6199C57.72 29.6199 57.231 28.6429 57.231 27.1769V22.2499H60.481C61.097 22.2499 61.607 21.7399 61.607 21.1239V20.1039C61.607 19.4889 61.097 18.9789 60.481 18.9789H57.231V16.3449C57.231 15.7289 56.721 15.2189 56.106 15.2189H54.895C54.279 15.2189 53.769 15.7289 53.769 16.3449V27.3049C53.769 30.7679 54.916 32.7439 57.954 32.7439C59.292 32.7439 60.312 32.4679 61.331 31.8509C61.671 31.6809 61.841 31.2779 61.841 30.8959V30.8949ZM68.723 24.1399C65.983 24.1399 63.795 25.5419 63.795 28.5149C63.795 31.1279 65.558 32.6579 67.959 32.6789C69.785 32.6789 71.229 31.9779 71.952 30.9589V31.4039C71.952 32.0199 72.462 32.5299 73.078 32.5299H73.864C74.48 32.5299 74.99 32.0199 74.99 31.4039V24.3099C74.99 20.7419 73.609 18.7029 69.616 18.7029C68.235 18.7029 66.896 19.0629 65.728 19.5949C65.368 19.7649 65.091 20.1679 65.091 20.5509C65.0961 20.6733 65.1239 20.7937 65.173 20.9059C65.189 20.9509 65.206 20.9959 65.218 21.0389L65.388 21.3989C65.601 21.8249 65.962 22.0379 66.408 22.0379C66.542 22.0379 66.688 21.9979 66.828 21.9599L66.938 21.9299C67.576 21.7189 68.235 21.5699 69.254 21.5699C71.124 21.5699 71.761 22.6319 71.761 24.6079V25.0119C71.101 24.5219 69.913 24.1409 68.723 24.1409V24.1399ZM69.403 26.4549C70.38 26.4549 71.145 26.6669 71.761 27.1139H71.781V28.5139C71.357 29.0889 70.614 29.7259 69.169 29.7259C68.065 29.7259 67.236 29.1529 67.236 28.1329C67.236 26.9859 68.256 26.4549 69.403 26.4549ZM86.312 30.8949C86.3151 30.7136 86.2628 30.5357 86.162 30.3849L85.887 29.9389C85.632 29.4929 85.335 29.3229 84.952 29.3229C84.762 29.3229 84.549 29.3649 84.272 29.4709C83.996 29.5779 83.678 29.6199 83.317 29.6199C82.191 29.6199 81.702 28.6429 81.702 27.1769V22.2499H84.952C85.568 22.2499 86.078 21.7399 86.078 21.1239V20.1039C86.078 19.4889 85.568 18.9789 84.952 18.9789H81.702V16.3449C81.702 15.7289 81.192 15.2189 80.576 15.2189H79.366C78.75 15.2189 78.24 15.7289 78.24 16.3449V27.3049C78.24 30.7679 79.387 32.7439 82.424 32.7439C83.763 32.7439 84.782 32.4679 85.802 31.8509C86.142 31.6809 86.312 31.2779 86.312 30.8959V30.8949ZM93.194 24.1399C90.454 24.1399 88.266 25.5419 88.266 28.5149C88.266 31.1279 90.05 32.6579 92.429 32.6789C94.256 32.6789 95.701 31.9779 96.423 30.9589V31.4039C96.423 32.0199 96.933 32.5299 97.549 32.5299H98.335C98.951 32.5299 99.461 32.0199 99.461 31.4039V24.3099C99.461 20.7419 98.08 18.7029 94.086 18.7029C92.706 18.7029 91.366 19.0629 90.199 19.5949C89.838 19.7649 89.562 20.1679 89.562 20.5509C89.5671 20.6733 89.5949 20.7937 89.644 20.9059C89.66 20.9509 89.677 20.9959 89.689 21.0389L89.859 21.3989C90.072 21.8249 90.433 22.0379 90.879 22.0379C91.013 22.0379 91.159 21.9979 91.299 21.9599L91.409 21.9299C92.047 21.7189 92.706 21.5699 93.725 21.5699C95.595 21.5699 96.232 22.6319 96.232 24.6079V25.0119C95.572 24.5219 94.384 24.1409 93.194 24.1409V24.1399ZM93.874 26.4549C94.851 26.4549 95.616 26.6669 96.232 27.1139H96.252V28.5139C95.828 29.0889 95.085 29.7259 93.64 29.7259C92.536 29.7259 91.707 29.1529 91.707 28.1329C91.707 26.9859 92.727 26.4549 93.874 26.4549ZM110.676 18.7449C109.019 18.7449 107.426 19.4029 106.47 20.4649H106.407V20.0819C106.407 19.4659 105.897 18.9559 105.281 18.9559H104.07C103.454 18.9559 102.944 19.4659 102.944 20.0819V31.3619C102.944 31.9779 103.454 32.4879 104.07 32.4879H105.281C105.897 32.4879 106.407 31.9779 106.407 31.3619V23.4169C107.023 22.5039 108.021 21.9729 109.232 21.9729C110.676 21.9729 111.462 22.8859 111.462 24.3099V31.3199C111.462 31.9349 111.972 32.4449 112.588 32.4449H113.799C114.415 32.4449 114.925 31.9349 114.925 31.3189V24.4999C114.925 24.3239 114.918 24.1039 114.913 23.9059C114.908 23.7439 114.903 23.5959 114.903 23.5009C115.371 22.5879 116.39 21.9509 117.686 21.9509C119.322 21.9509 120.002 22.8639 120.002 24.5409V31.3609C120.002 31.9769 120.511 32.4869 121.127 32.4869H122.338C122.954 32.4869 123.464 31.9769 123.464 31.3609V23.6709C123.464 19.9539 121.616 18.7429 119.152 18.7429C117.07 18.7429 115.562 19.6349 114.606 20.9099C114.118 19.6779 112.737 18.7429 110.676 18.7429V18.7449ZM129.284 16.2799C130.261 16.2799 131.26 15.4939 131.26 14.1129C131.26 12.9029 130.261 12.1169 129.284 12.1169C128.116 12.1169 127.118 12.9029 127.118 14.1129C127.118 15.4929 128.116 16.2799 129.284 16.2799ZM130.941 20.1039C130.941 19.4879 130.431 18.9779 129.815 18.9779V18.9559H128.605C127.989 18.9559 127.479 19.4659 127.479 20.0819V31.3619C127.479 31.9779 127.989 32.4879 128.605 32.4879H129.815C130.431 32.4879 130.941 31.9779 130.941 31.3619V20.1039ZM141.881 21.8879C142.752 21.8879 143.453 22.0369 144.26 22.4179C144.403 22.4979 144.558 22.5299 144.698 22.5579L144.833 22.5879C145.237 22.5879 145.619 22.3339 145.853 21.9519L146.299 21.1659C146.405 21.0159 146.427 20.8459 146.427 20.6759C146.427 20.2949 146.235 19.8489 145.896 19.6789C144.579 18.9559 143.262 18.6589 141.456 18.6589C137.335 18.6589 134.467 21.8029 134.467 25.7329C134.467 29.9809 137.42 32.8059 141.881 32.8059C143.559 32.8059 144.982 32.5089 146.597 31.2129C146.851 31.0219 147 30.6179 147 30.2569C147 30.0239 146.936 29.7899 146.788 29.6409L146.278 29.0039C146.165 28.8645 146.023 28.7521 145.861 28.6749C145.699 28.5978 145.522 28.5578 145.343 28.5579C145.11 28.5579 144.855 28.6429 144.621 28.7919C143.835 29.3019 143.07 29.5779 142.008 29.5779C139.969 29.5779 138.121 28.0909 138.121 25.7119C138.121 23.3539 139.948 21.8879 141.881 21.8879Z" fill="#374151"/>
</g>
</g>
<defs>
<clipPath id="clip0_1_288">
<rect width="147" height="48" fill="white"/>
</clipPath>
</defs>
</svg>
