<svg width="158" height="48" viewBox="0 0 158 48" fill="none" xmlns="http://www.w3.org/2000/svg">
<g id="transistor" clip-path="url(#clip0_1_264)">
<g id="Group">
<path id="Vector" d="M55.4231 18.1781V15.6871H66.3801V18.1781H62.3041V32.0531H59.4701V18.1781H55.4231ZM73.5211 22.7551C73.0821 22.6771 72.637 22.6383 72.1911 22.6391C70.3711 22.6391 69.3011 23.8271 69.3011 26.2311V32.0241H66.6111V20.5541H69.2421V22.1761H69.3001C69.8201 21.1911 70.9771 20.1761 72.5101 20.1761C72.9431 20.1761 73.2321 20.2061 73.5211 20.2351V22.7551ZM86.3871 32.0241H83.7851V30.5761H83.7271C82.9471 31.5611 81.7031 32.4591 79.7951 32.4591C77.2221 32.4591 74.3021 30.4021 74.3021 26.2891C74.3021 22.6391 76.8751 20.2061 79.9971 20.2061C81.9051 20.2061 83.0621 21.2191 83.7571 22.1171H83.8141V20.5531H86.4161V32.0241H86.3861H86.3871ZM80.4891 30.0841C82.2521 30.0841 83.9001 28.5481 83.9001 26.3461C83.9001 24.0291 82.3971 22.4941 80.5181 22.4941C78.1481 22.4941 77.0191 24.4061 77.0191 26.2891C77.0191 28.2001 78.1191 30.0831 80.4891 30.0831V30.0841ZM89.5101 20.5531H92.1701V22.0021H92.2271C93.1231 20.6981 94.4531 20.1771 95.7251 20.1771C98.0961 20.1771 100.178 21.7411 100.178 25.4201V32.0241H97.4881V25.5641C97.4881 23.5941 96.5641 22.5521 95.0311 22.5521C93.3541 22.5521 92.1981 23.7401 92.1981 25.9701V32.0531H89.5101V20.5531H89.5111H89.5101ZM108.302 23.5081C108.186 22.6681 107.55 22.1181 106.769 22.1181C105.844 22.1181 105.324 22.6971 105.324 23.3341C105.324 24.0291 105.671 24.5221 107.665 25.1881C110.123 25.9701 110.99 27.2451 110.99 28.8671C110.99 30.9811 109.4 32.4591 106.769 32.4591C104.023 32.4591 102.664 30.9521 102.461 28.8091H104.948C105.063 29.7651 105.642 30.4891 106.827 30.4891C107.839 30.4891 108.417 29.8521 108.417 29.0691C108.417 28.2011 107.926 27.6501 106.018 27.0131C103.878 26.3181 102.779 25.2461 102.779 23.4501C102.779 21.5671 104.254 20.1771 106.682 20.1771C109.14 20.1771 110.441 21.6251 110.73 23.5071H108.302V23.5081ZM113.332 15.2811H116.31V18.0041H113.332V15.2811ZM113.477 20.5531H116.165V32.0531H113.477V20.5531ZM124.463 23.5081C124.347 22.6681 123.711 22.1181 122.93 22.1181C122.005 22.1181 121.485 22.6971 121.485 23.3341C121.485 24.0291 121.832 24.5221 123.827 25.1881C126.284 25.9701 127.151 27.2451 127.151 28.8671C127.151 30.9811 125.561 32.4591 122.93 32.4591C120.184 32.4591 118.825 30.9521 118.623 28.8091H121.109C121.225 29.7651 121.803 30.4891 122.988 30.4891C124 30.4891 124.578 29.8521 124.578 29.0691C124.578 28.2011 124.087 27.6501 122.179 27.0131C120.039 26.3181 118.941 25.2461 118.941 23.4501C118.941 21.5671 120.415 20.1771 122.844 20.1771C125.301 20.1771 126.602 21.6251 126.891 23.5071H124.463V23.5081ZM128.308 20.5531H129.753V16.8751H132.442V20.5531H135.304V22.8131H132.413V27.9401C132.413 29.5041 132.905 29.9391 134.003 29.9391C134.466 29.9391 134.986 29.8521 135.391 29.7361V31.9081C134.784 32.0821 134.032 32.1691 133.367 32.1691C130.505 32.1691 129.753 30.4311 129.753 28.0851V22.8131H128.308V20.5531ZM142.619 20.1771C146.204 20.1771 148.748 22.8131 148.748 26.2891C148.748 29.6781 146.175 32.4591 142.619 32.4591C139.121 32.4591 136.49 29.7651 136.49 26.2891C136.49 22.7261 139.15 20.1771 142.619 20.1771ZM142.619 30.0541C144.643 30.0541 146.03 28.4321 146.03 26.2891C146.03 24.2611 144.729 22.5521 142.619 22.5521C140.566 22.5521 139.207 24.1451 139.207 26.2891C139.207 28.4901 140.769 30.0541 142.619 30.0541ZM156.671 22.6391C154.849 22.6391 153.78 23.8271 153.78 26.2311V32.0241H151.091V20.5541H153.722V22.1761H153.78C154.3 21.1911 155.456 20.1761 156.989 20.1761C157.422 20.1761 157.711 20.2061 158.001 20.2351V22.7551C157.562 22.6771 157.117 22.6382 156.671 22.6391ZM20.8161 37.7311C20.4478 37.7305 20.0948 37.5839 19.8345 37.3232C19.5743 37.0626 19.4281 36.7094 19.4281 36.3411V11.3701C19.4286 11.0958 19.5102 10.8278 19.6627 10.5999C19.8153 10.372 20.0319 10.1943 20.2852 10.0893C20.5386 9.98425 20.8173 9.95658 21.0864 10.0098C21.3554 10.0629 21.6027 10.1946 21.7971 10.3881C22.0571 10.6481 22.2031 11.0021 22.2031 11.3701V36.3401C22.2031 37.0931 21.5671 37.7301 20.8161 37.7301V37.7311ZM15.0331 25.2471H8.38309C8.01496 25.2463 7.66218 25.0995 7.40215 24.8389C7.14213 24.5783 6.99609 24.2252 6.99609 23.8571C6.99609 23.0741 7.60309 22.4661 8.38409 22.4661H15.0341C15.4027 22.4661 15.7563 22.6125 16.017 22.8732C16.2776 23.1339 16.4241 23.4874 16.4241 23.8561C16.4241 24.2247 16.2776 24.5783 16.017 24.8389C15.7563 25.0996 15.4027 25.2461 15.0341 25.2461V25.2471H15.0331ZM33.2761 25.2471H26.5981C26.2298 25.2465 25.8768 25.0999 25.6165 24.8392C25.3563 24.5786 25.2101 24.2254 25.2101 23.8571C25.2101 23.0741 25.8171 22.4661 26.5981 22.4661H33.2481C33.6162 22.4669 33.969 22.6137 34.229 22.8742C34.4891 23.1348 34.6351 23.4879 34.6351 23.8561C34.6351 24.6381 34.0281 25.2461 33.2761 25.2461V25.2471Z" fill="#374151"/>
<path id="Vector_2" d="M20.816 44.712C9.338 44.712 0 35.356 0 23.856C0 12.356 9.338 3 20.816 3C32.294 3 41.632 12.356 41.632 23.856C41.632 35.356 32.294 44.712 20.816 44.712ZM20.816 5.781C10.871 5.781 2.776 13.891 2.776 23.856C2.776 33.821 10.871 41.931 20.816 41.931C30.762 41.931 38.856 33.821 38.856 23.856C38.856 13.891 30.763 5.781 20.817 5.781H20.816Z" fill="#374151"/>
</g>
</g>
<defs>
<clipPath id="clip0_1_264">
<rect width="158" height="48" fill="white"/>
</clipPath>
</defs>
</svg>
