<svg width="105" height="48" viewBox="0 0 105 48" fill="none" xmlns="http://www.w3.org/2000/svg">
<g id="tuple">
<path id="Vector" fill-rule="evenodd" clip-rule="evenodd" d="M18 4L0 10V29.5L6 31.5V37L24 43V11.5L18 13.5V4ZM8 32.167L18 35.5V15.608L22 14.275V40.225L8 35.56V32.167Z" fill="#374151"/>
<path id="Vector_2" d="M42.8999 20.4501V31.0001H47.3459V20.4501H50.8759V17.0581H39.3899V20.4511H42.8999V20.4501ZM53.1049 25.2481C53.1049 29.2261 55.4049 31.2541 59.4809 31.2541C63.3809 31.2541 65.8769 29.4011 65.8769 25.2091V17.0591H61.4299V25.0531C61.4299 26.8861 61.0399 27.7831 59.4799 27.7831C57.8999 27.7831 57.5099 26.8861 57.5099 25.0731V17.0581H53.1039V25.2481H53.1049Z" fill="#374151"/>
<path id="Vector_3" fill-rule="evenodd" clip-rule="evenodd" d="M68.9651 31.0001V17.0581H74.5231C78.5401 17.0581 80.2561 18.8521 80.2561 21.8351V21.9131C80.2561 24.8191 78.3261 26.4571 74.7181 26.4571H73.3721V31.0001H68.9651ZM74.2881 23.4931H73.3721V20.3531H74.3081C75.4581 20.3531 76.0631 20.7831 76.0631 21.8551V21.9331C76.0631 22.9661 75.4581 23.4931 74.2881 23.4931Z" fill="#374151"/>
<path id="Vector_4" d="M82.563 31.0001V17.0581H86.99V27.5881H92.06V31.0001H82.563ZM94.562 17.0581V31.0001H104.78V27.6071H98.969V25.5211H103.337V22.4211H98.969V20.4511H104.468V17.0581H94.562Z" fill="#374151"/>
</g>
</svg>
