<svg width="10" height="11" viewBox="0 0 10 11" fill="none" xmlns="http://www.w3.org/2000/svg">
<path id="Vector" fill-rule="evenodd" clip-rule="evenodd" d="M3.10986 0.30826C2.80867 0.124058 2.45858 0.0182617 2.09694 0.00215928C1.7353 -0.0139432 1.37567 0.0602513 1.05642 0.216828C0.737176 0.373405 0.47029 0.606489 0.284238 0.891214C0.0981847 1.17594 -5.41651e-05 1.50162 2.24048e-08 1.83352V9.16648C-5.41651e-05 9.49838 0.0981847 9.82406 0.284238 10.1088C0.47029 10.3935 0.737176 10.6266 1.05642 10.7832C1.37567 10.9397 1.7353 11.0139 2.09694 10.9978C2.45858 10.9817 2.80867 10.8759 3.10986 10.6917L9.10959 7.02526C9.3835 6.85784 9.60808 6.63103 9.7634 6.36496C9.91873 6.09888 10 5.80177 10 5.5C10 5.19823 9.91873 4.90112 9.7634 4.63504C9.60808 4.36897 9.3835 4.14216 9.10959 3.97474L3.10986 0.30826Z" fill="#1C64F2"/>
</svg>
